Coordinates
version=1
nRows=95
nColumns=11
inDegrees=no

Units are S.I. units (second, meters, Newtons, ...)
If the header above contains a line with 'inDegrees', this indicates whether rotational values are in degrees (yes) or radians (no).

endheader
time	pelvis_tilt	pelvis_tx	pelvis_ty	hip_flexion_r	knee_angle_r	ankle_angle_r	hip_flexion_l	knee_angle_l	ankle_angle_l	lumbar_extension
315.01	-0.0625771	0.187733	0.961288	0.638079	-0.208175	0.0454137	-0.238974	-0.180079	0.49919	0
315.02	-0.0650825	0.188569	0.958158	0.646385	-0.243517	0.0469354	-0.245621	-0.192312	0.501911	0
315.03	-0.0670054	0.189718	0.955526	0.652426	-0.276152	0.0464426	-0.252719	-0.203989	0.506993	0
315.04	-0.0696486	0.190789	0.953078	0.658594	-0.304458	0.0381605	-0.258029	-0.216762	0.511707	0
315.05	-0.0729714	0.191547	0.950612	0.665473	-0.327488	0.0132491	-0.262857	-0.2298	0.496639	0
315.06	-0.0757552	0.192513	0.948725	0.66988	-0.345785	-0.020495	-0.268065	-0.242963	0.479752	0
315.07	-0.0793238	0.193404	0.947042	0.67406	-0.365217	-0.0451964	-0.269995	-0.260188	0.465045	0
315.08	-0.0369146	0.189024	0.949162	0.646964	-0.410729	-0.0516941	-0.301571	-0.303174	0.455016	0
315.09	-0.0438575	0.190314	0.948162	0.665167	-0.457011	-0.0321111	-0.29421	-0.329052	0.435232	0
315.1	-0.0479561	0.192124	0.947719	0.680305	-0.505074	-0.00578275	-0.288314	-0.357751	0.406272	0
315.11	-0.0495601	0.194249	0.947626	0.688802	-0.546949	0.0177678	-0.28118	-0.3928	0.373234	0
315.12	-0.050807	0.196398	0.947689	0.693815	-0.583754	0.0414502	-0.269108	-0.435223	0.335732	0
315.13	-0.0501976	0.198544	0.948202	0.692919	-0.613556	0.0678085	-0.254412	-0.483626	0.291507	0
315.14	-0.0485013	0.199992	0.94944	0.686067	-0.633595	0.091819	-0.235397	-0.536885	0.237615	0
315.15	-0.0495149	0.200671	0.951059	0.676318	-0.641983	0.113171	-0.208855	-0.59389	0.175844	0
315.16	-0.0508177	0.200795	0.953132	0.662928	-0.642266	0.132575	-0.178188	-0.653658	0.111595	0
315.17	-0.0506603	0.200891	0.95539	0.647186	-0.64146	0.152297	-0.145564	-0.716729	0.0495817	0
315.18	-0.049631	0.201162	0.957913	0.629311	-0.639621	0.171281	-0.112306	-0.779146	-0.0145289	0
315.19	-0.047934	0.201572	0.960445	0.610218	-0.637718	0.190789	-0.0788588	-0.838846	-0.0858961	0
315.2	-0.0452978	0.202157	0.963298	0.589819	-0.635483	0.209648	-0.046118	-0.893106	-0.14709	0
315.21	-0.0446113	0.202482	0.966089	0.571211	-0.632013	0.226592	-0.0120909	-0.94363	-0.166322	0
315.22	-0.0454094	0.202244	0.968464	0.55751	-0.632893	0.240576	0.0224577	-0.990802	-0.14666	0
315.23	-0.0458269	0.201795	0.970861	0.542939	-0.632552	0.25352	0.0559825	-1.03316	-0.116122	0
315.24	-0.0478578	0.201143	0.973282	0.528227	-0.628647	0.266924	0.0930661	-1.07223	-0.0891333	0
315.25	-0.0518272	0.200235	0.975685	0.515036	-0.623305	0.278142	0.13349	-1.10745	-0.071765	0
315.26	-0.0553975	0.199044	0.978186	0.50185	-0.617301	0.285749	0.174385	-1.13765	-0.0617465	0
315.27	-0.0573285	0.197886	0.981031	0.484387	-0.606773	0.289852	0.212846	-1.16014	-0.0562592	0
315.28	-0.0577	0.196699	0.984055	0.463721	-0.593003	0.297113	0.248154	-1.17674	-0.0470535	0
315.29	-0.0573021	0.19544	0.987018	0.441457	-0.57762	0.304506	0.281118	-1.18895	-0.0315105	0
315.3	-0.0546816	0.194693	0.990217	0.414295	-0.558391	0.311626	0.308414	-1.19375	-0.0169391	0
315.31	-0.0527921	0.193598	0.993201	0.389342	-0.540959	0.316027	0.335454	-1.19396	-0.00172325	0
315.32	-0.0503432	0.192375	0.99588	0.365129	-0.525348	0.319073	0.361802	-1.19051	0.0137429	0
315.33	-0.0462949	0.191241	0.998512	0.33851	-0.508505	0.320939	0.385932	-1.1821	0.0292346	0
315.34	-0.0415161	0.190763	1.00105	0.310199	-0.491345	0.324423	0.405901	-1.16635	0.0423399	0
315.35	-0.0373395	0.19028	1.00344	0.282107	-0.473362	0.328609	0.424104	-1.14378	0.0540126	0
315.36	-0.0339172	0.189437	1.00548	0.254808	-0.45494	0.334005	0.442697	-1.11842	0.0668779	0
315.37	-0.0666579	0.196709	1.00526	0.249439	-0.423852	0.34066	0.480889	-1.0766	0.0825471	0
315.38	-0.0328953	0.187914	1.0083	0.208499	-0.420989	0.342114	0.480568	-1.05344	0.0888555	0
315.39	-0.0315571	0.187212	1.00939	0.184803	-0.404352	0.345238	0.495131	-1.01268	0.0927203	0
315.4	-0.0312165	0.186504	1.0104	0.163483	-0.389173	0.349184	0.508911	-0.966591	0.0964667	0
315.41	-0.0339837	0.185766	1.01074	0.145845	-0.374678	0.353479	0.525365	-0.918612	0.100291	0
315.42	-0.0370293	0.184796	1.01056	0.127772	-0.359088	0.355434	0.53968	-0.865376	0.105168	0
315.43	-0.0371834	0.184499	1.01039	0.106094	-0.343937	0.359179	0.54777	-0.807458	0.106466	0
315.44	-0.0366716	0.184297	1.01002	0.0857939	-0.333504	0.366438	0.55201	-0.744224	0.102305	0
315.45	-0.0350486	0.184317	1.00944	0.0637866	-0.322682	0.374516	0.552611	-0.677636	0.101037	0
315.46	-0.0335234	0.184341	1.00841	0.0428181	-0.313956	0.383831	0.55302	-0.610017	0.0993296	0
315.47	-0.0316554	0.184518	1.007	0.0214479	-0.305997	0.39313	0.552392	-0.542247	0.0939554	0
315.48	-0.0287857	0.185055	1.00553	-0.00341479	-0.293721	0.403052	0.548706	-0.473858	0.0868767	0
315.49	-0.0249222	0.185693	1.00393	-0.0309821	-0.277776	0.410507	0.54408	-0.408818	0.0791117	0
315.5	-0.0573267	0.193859	0.999915	-0.0385313	-0.243675	0.418089	0.56271	-0.335327	0.0706065	0
315.51	-0.0577847	0.194211	0.997475	-0.0583022	-0.233546	0.427434	0.565009	-0.281854	0.0536025	0
315.52	-0.0552136	0.195384	0.995122	-0.0838586	-0.219812	0.43208	0.562888	-0.23442	0.0404243	0
315.53	-0.0522565	0.196768	0.992721	-0.110193	-0.205515	0.436994	0.561828	-0.194723	0.0329408	0
315.54	-0.0468719	0.198437	0.990423	-0.139247	-0.192939	0.443254	0.559094	-0.164608	0.0303673	0
315.55	-0.0585099	0.197728	0.986283	-0.147754	-0.176929	0.447893	0.577865	-0.142209	0.032009	0
315.56	-0.0588498	0.19831	0.983119	-0.16326	-0.176941	0.456287	0.583492	-0.130962	0.0353856	0
315.57	-0.0582463	0.19928	0.979971	-0.180959	-0.175433	0.463595	0.587372	-0.12704	0.0434914	0
315.58	-0.0568949	0.200473	0.976945	-0.200097	-0.172313	0.470142	0.58908	-0.130787	0.0507697	0
315.59	-0.0570166	0.201537	0.973754	-0.21597	-0.171867	0.475629	0.59158	-0.142412	0.0561067	0
315.6	-0.0479597	0.203656	0.97156	-0.241495	-0.176328	0.479345	0.583735	-0.164961	0.0540838	0
315.61	-0.0481069	0.204834	0.968691	-0.255031	-0.180373	0.480574	0.586795	-0.192617	0.0434579	0
315.62	-0.0169946	0.199504	0.968	-0.285138	-0.201667	0.482089	0.571005	-0.235581	0.0308374	0
315.63	-0.0232151	0.201074	0.964742	-0.289229	-0.211818	0.478672	0.57974	-0.261838	0.0228498	0
315.64	-0.0320394	0.202558	0.96165	-0.288512	-0.22531	0.474488	0.593695	-0.286957	0.00103841	0
315.65	-0.038787	0.204385	0.959046	-0.289284	-0.240444	0.468195	0.603823	-0.308984	-0.0344494	0
315.66	-0.0453886	0.206062	0.956707	-0.288384	-0.258163	0.458202	0.613135	-0.332002	-0.0633392	0
315.67	-0.0526553	0.20736	0.954842	-0.282538	-0.28234	0.445249	0.626487	-0.364349	-0.071289	0
315.68	-0.0592462	0.208558	0.95357	-0.274744	-0.310633	0.426203	0.644335	-0.409013	-0.057487	0
315.69	-0.0618691	0.210333	0.953067	-0.26859	-0.343009	0.398641	0.6599	-0.460226	-0.0275653	0
315.7	-0.0615335	0.212298	0.953123	-0.261567	-0.380708	0.365349	0.669726	-0.507802	0.00420203	0
315.71	-0.0597117	0.214257	0.953638	-0.250662	-0.426158	0.324817	0.67246	-0.545769	0.0297221	0
315.72	-0.058451	0.215915	0.954549	-0.234037	-0.477885	0.275848	0.668096	-0.569285	0.0488065	0
315.73	-0.0570864	0.216773	0.955983	-0.211449	-0.536066	0.219317	0.657753	-0.581538	0.0646237	0
315.74	-0.0562445	0.217065	0.957865	-0.183907	-0.596976	0.16068	0.645527	-0.58847	0.0826506	0
315.75	-0.0555328	0.217018	0.96006	-0.153369	-0.659267	0.100349	0.631667	-0.591426	0.100636	0
315.76	-0.0540892	0.217049	0.96251	-0.122108	-0.722115	0.0373982	0.615258	-0.591591	0.119471	0
315.77	-0.0500173	0.21729	0.965648	-0.0924857	-0.783065	-0.0337877	0.593699	-0.587733	0.138551	0
315.78	-0.0461597	0.21735	0.969064	-0.0613865	-0.841219	-0.103655	0.572039	-0.583644	0.153896	0
315.79	-0.0426446	0.217128	0.972135	-0.0293735	-0.897023	-0.14603	0.551925	-0.581793	0.168327	0
315.8	-0.0401628	0.216631	0.974952	0.00235275	-0.949534	-0.141329	0.533594	-0.5801	0.178995	0
315.81	-0.0390784	0.215659	0.977715	0.0353422	-0.997505	-0.114993	0.515952	-0.574797	0.188895	0
315.82	-0.0410892	0.214292	0.980323	0.0735063	-1.0422	-0.0911043	0.501518	-0.569442	0.19953	0
315.83	-0.0456594	0.212678	0.982687	0.116553	-1.08433	-0.0748988	0.489136	-0.562413	0.210646	0
315.84	-0.0487371	0.211196	0.985359	0.156735	-1.11945	-0.067276	0.474057	-0.552627	0.219377	0
315.85	-0.0510944	0.209326	0.987938	0.195785	-1.14971	-0.063192	0.457477	-0.540876	0.226176	0
315.86	-0.0508218	0.207645	0.990808	0.23038	-1.17324	-0.0603439	0.436421	-0.527059	0.232638	0
315.87	-0.0483198	0.20626	0.994113	0.260574	-1.18939	-0.0593999	0.41118	-0.510207	0.238519	0
315.88	-0.0466575	0.204255	0.997259	0.292155	-1.20175	-0.0556297	0.386748	-0.491414	0.244137	0
315.89	-0.0434821	0.202356	1.00029	0.320467	-1.20921	-0.044742	0.35951	-0.470871	0.247528	0
315.9	-0.0389641	0.200683	1.00331	0.34498	-1.21	-0.0329194	0.332859	-0.454058	0.249229	0
315.91	-0.0342733	0.199218	1.00609	0.367473	-1.20547	-0.0228635	0.304425	-0.434721	0.250539	0
315.92	-0.0286083	0.197512	1.0087	0.388137	-1.1965	-0.0150499	0.272493	-0.410345	0.252293	0
315.93	-0.026903	0.195163	1.01258	0.410139	-1.1766	-0.0102717	0.205026	-0.308057	0.234392	0
315.94	-0.0187358	0.193514	1.01458	0.424499	-1.15735	0.00441311	0.169717	-0.281281	0.235357	0
315.95	-0.0124426	0.191779	1.01627	0.438986	-1.13242	0.0202095	0.137497	-0.256716	0.236438	0
